<?xml version="1.0" standalone="no"?>
<!DOCTYPE svg PUBLIC "-//W3C//DTD SVG 20010904//EN"
 "http://www.w3.org/TR/2001/REC-SVG-20010904/DTD/svg10.dtd">
<svg version="1.0" xmlns="http://www.w3.org/2000/svg"
 width="600.000000pt" height="600.000000pt" viewBox="0 0 600.000000 600.000000"
 preserveAspectRatio="xMidYMid meet">

<g transform="translate(0.000000,600.000000) scale(0.100000,-0.100000)"
fill="black" stroke="black" stroke-width="30">
<path d="M2868 4998 l-3 -703 -160 -6 c-134 -5 -170 -9 -220 -29 -147 -56
-260 -160 -330 -304 -131 -264 -90 -570 104 -778 38 -41 90 -85 115 -99 25
-13 46 -26 46 -29 0 -3 -17 -15 -38 -27 -113 -64 -220 -204 -268 -349 -26 -80
-29 -102 -29 -219 0 -117 3 -139 29 -219 48 -147 153 -282 273 -353 96 -56
177 -75 336 -81 l147 -5 0 -738 0 -739 55 0 55 0 0 740 0 740 280 0 280 0 0
60 0 60 -280 0 -280 0 0 535 0 535 280 0 280 0 0 60 0 60 -280 0 -280 0 2 533
3 532 278 3 277 2 0 55 0 55 -277 2 -278 3 -3 703 -2 702 -55 0 -55 0 -2 -702z
m0 -1356 l2 -534 -152 4 c-148 3 -155 4 -221 35 -90 43 -146 91 -201 171 -189
277 -96 680 188 813 85 40 130 47 266 46 l115 -2 3 -533z m2 -1187 l0 -535
-123 0 c-187 0 -274 29 -375 124 -117 109 -174 243 -174 411 0 168 57 302 174
411 101 95 182 122 371 123 l127 1 0 -535z"/>
</g>
</svg>